<svg height="512pt" viewBox="-48 0 512 512.00594" width="512pt" xmlns="http://www.w3.org/2000/svg"><path d="m168.003906 496.007812c-4.425781 0-8-3.578124-8-8 0-84.84375 2.496094-149.867187 4.6875-207.234374 1.785156-46.367188 3.3125-86.414063 3.3125-128.765626 0-4.417968 3.574219-8 8-8 4.421875 0 8 3.582032 8 8 0 42.664063-1.535156 82.847657-3.320312 129.382813-2.191406 57.214844-4.679688 122.078125-4.679688 206.617187 0 4.421876-3.578125 8-8 8zm0 0"/><path d="m136.003906 496.007812c-4.425781 0-8-3.578124-8-8 0-84.539062-2.488281-149.402343-4.679687-206.617187-1.785157-46.535156-3.320313-86.71875-3.320313-129.382813 0-4.417968 3.574219-8 8-8 4.421875 0 8 3.582032 8 8 0 42.351563 1.527344 82.398438 3.3125 128.765626 2.191406 57.367187 4.6875 122.390624 4.6875 207.234374 0 4.421876-3.578125 8-8 8zm0 0"/><path d="m152.003906 512.007812c-13.234375 0-24-10.769531-24-24 0-4.425781 3.574219-8 8-8 4.421875 0 8 3.574219 8 8 0 4.414063 3.582032 8 8 8 4.414063 0 8-3.585937 8-8 0-4.425781 3.574219-8 8-8 4.421875 0 8 3.574219 8 8 0 13.230469-10.769531 24-24 24zm0 0"/><path d="m176.003906 160.007812h-48c-4.425781 0-8-3.585937-8-8 0-4.417968 3.574219-8 8-8h48c4.421875 0 8 3.582032 8 8 0 4.414063-3.578125 8-8 8zm0 0"/><path d="m176.003906 160.007812c-4.425781 0-8-3.585937-8-8v-24c0-4.417968 3.574219-8 8-8 4.421875 0 8 3.582032 8 8v24c0 4.414063-3.578125 8-8 8zm0 0"/><path d="m176.003906 136.007812h-48c-4.425781 0-8-3.585937-8-8 0-4.417968 3.574219-8 8-8h48c4.421875 0 8 3.582032 8 8 0 4.414063-3.578125 8-8 8zm0 0"/><path d="m128.003906 160.007812c-4.425781 0-8-3.585937-8-8v-24c0-4.417968 3.574219-8 8-8 4.421875 0 8 3.582032 8 8v24c0 4.414063-3.578125 8-8 8zm0 0"/><path d="m184.003906 40.007812c-17.648437 0-32-14.355468-32-32 0-4.417968 3.574219-7.9999995 8-7.9999995 4.421875 0 8 3.5820315 8 7.9999995 0 8.820313 7.175782 16 16 16 4.421875 0 8 3.582032 8 8 0 4.414063-3.578125 8-8 8zm0 0"/><path d="m120.003906 40.007812c-4.425781 0-8-3.585937-8-8 0-4.417968 3.574219-8 8-8 8.824219 0 16-7.179687 16-16 0-4.417968 3.574219-7.9999995 8-7.9999995 4.421875 0 8 3.5820315 8 7.9999995 0 17.644532-14.351562 32-32 32zm0 0"/><path d="m120.003906 104.007812c-4.425781 0-8-3.585937-8-8v-64c0-4.417968 3.574219-8 8-8 4.421875 0 8 3.582032 8 8v64c0 4.414063-3.578125 8-8 8zm0 0"/><path d="m184.003906 104.007812c-4.425781 0-8-3.585937-8-8v-64c0-4.417968 3.574219-8 8-8 4.421875 0 8 3.582032 8 8v64c0 4.414063-3.578125 8-8 8zm0 0"/><path d="m136.011719 136.007812c-2.9375 0-5.761719-1.617187-7.167969-4.425781l-16-32c-1.976562-3.953125-.375-8.761719 3.574219-10.734375 3.953125-1.976562 8.761719-.378906 10.738281 3.574219l16 32c1.976562 3.953125.375 8.761719-3.578125 10.734375-1.144531.578125-2.367187.851562-3.566406.851562zm0 0"/><path d="m167.996094 136.007812c-1.199219 0-2.425782-.273437-3.570313-.84375-3.949219-1.972656-5.550781-6.78125-3.574219-10.734374l16-32c1.984376-3.953126 6.785157-5.550782 10.734376-3.574219 3.953124 1.972656 5.554687 6.78125 3.578124 10.734375l-16 32c-1.410156 2.800781-4.234374 4.417968-7.167968 4.417968zm0 0"/><path d="m160.003906 16.007812h-16c-4.425781 0-8-3.585937-8-8 0-4.417968 3.574219-7.9999995 8-7.9999995h16c4.421875 0 8 3.5820315 8 7.9999995 0 4.414063-3.578125 8-8 8zm0 0"/><path d="m120.011719 104.007812c-2.441407 0-4.832031-1.105468-6.410157-3.203124-2.65625-3.535157-1.933593-8.550782 1.601563-11.199219l32-24c3.527344-2.664063 8.542969-1.945313 11.191406 1.601562 2.65625 3.535157 1.9375 8.550781-1.597656 11.199219l-32 24c-1.433594 1.078125-3.113281 1.601562-4.785156 1.601562zm0 0"/><path d="m183.996094 104.007812c-1.671875 0-3.351563-.523437-4.792969-1.601562l-32-24c-3.535156-2.648438-4.257813-7.664062-1.601563-11.199219 2.648438-3.527343 7.664063-4.257812 11.195313-1.601562l32 24c3.535156 2.648437 4.253906 7.664062 1.597656 11.199219-1.558593 2.097656-3.960937 3.203124-6.398437 3.203124zm0 0"/><path d="m56.003906 496.007812c-4.425781 0-8-3.578124-8-8 0-84.84375 2.496094-149.867187 4.6875-207.234374 1.785156-46.367188 3.3125-86.414063 3.3125-128.765626 0-4.417968 3.574219-8 8-8 4.421875 0 8 3.582032 8 8 0 42.664063-1.535156 82.847657-3.320312 129.382813-2.191406 57.214844-4.679688 122.078125-4.679688 206.617187 0 4.421876-3.578125 8-8 8zm0 0"/><path d="m24.003906 496.007812c-4.425781 0-8-3.578124-8-8 0-84.539062-2.488281-149.402343-4.679687-206.617187-1.785157-46.535156-3.320313-86.71875-3.320313-129.382813 0-4.417968 3.574219-8 8-8 4.421875 0 8 3.582032 8 8 0 42.351563 1.527344 82.398438 3.3125 128.765626 2.191406 57.367187 4.6875 122.390624 4.6875 207.234374 0 4.421876-3.578125 8-8 8zm0 0"/><path d="m40.003906 512.007812c-13.234375 0-24-10.769531-24-24 0-4.425781 3.574219-8 8-8 4.421875 0 8 3.574219 8 8 0 4.414063 3.582032 8 8 8 4.414063 0 8-3.585937 8-8 0-4.425781 3.574219-8 8-8 4.421875 0 8 3.574219 8 8 0 13.230469-10.769531 24-24 24zm0 0"/><path d="m64.003906 160.007812h-48c-4.425781 0-8-3.585937-8-8 0-4.417968 3.574219-8 8-8h48c4.421875 0 8 3.582032 8 8 0 4.414063-3.578125 8-8 8zm0 0"/><path d="m64.003906 160.007812c-4.425781 0-8-3.585937-8-8v-24c0-4.417968 3.574219-8 8-8 4.421875 0 8 3.582032 8 8v24c0 4.414063-3.578125 8-8 8zm0 0"/><path d="m64.003906 136.007812h-48c-4.425781 0-8-3.585937-8-8 0-4.417968 3.574219-8 8-8h48c4.421875 0 8 3.582032 8 8 0 4.414063-3.578125 8-8 8zm0 0"/><path d="m16.003906 160.007812c-4.425781 0-8-3.585937-8-8v-24c0-4.417968 3.574219-8 8-8 4.421875 0 8 3.582032 8 8v24c0 4.414063-3.578125 8-8 8zm0 0"/><path d="m24.003906 136.007812c-4.425781 0-8-3.585937-8-8v-28.296874c0-4.417969 3.574219-8 8-8 4.421875 0 8 3.582031 8 8v28.296874c0 4.414063-3.578125 8-8 8zm0 0"/><path d="m56.003906 136.007812c-4.425781 0-8-3.585937-8-8v-28.3125c0-4.417968 3.574219-8 8-8 4.421875 0 8 3.582032 8 8v28.3125c0 4.414063-3.578125 8-8 8zm0 0"/><path d="m280.003906 496.007812c-4.425781 0-8-3.578124-8-8 0-84.84375 2.496094-149.867187 4.6875-207.234374 1.785156-46.367188 3.3125-86.414063 3.3125-128.765626 0-4.417968 3.574219-8 8-8 4.421875 0 8 3.582032 8 8 0 42.664063-1.535156 82.847657-3.320312 129.382813-2.191406 57.214844-4.679688 122.078125-4.679688 206.617187 0 4.421876-3.578125 8-8 8zm0 0"/><path d="m248.003906 496.007812c-4.425781 0-8-3.578124-8-8 0-84.539062-2.488281-149.402343-4.679687-206.617187-1.785157-46.535156-3.320313-86.71875-3.320313-129.382813 0-4.417968 3.574219-8 8-8 4.421875 0 8 3.582032 8 8 0 42.351563 1.527344 82.398438 3.3125 128.765626 2.191406 57.367187 4.6875 122.390624 4.6875 207.234374 0 4.421876-3.578125 8-8 8zm0 0"/><path d="m264.003906 512.007812c-13.234375 0-24-10.769531-24-24 0-4.425781 3.574219-8 8-8 4.421875 0 8 3.574219 8 8 0 4.414063 3.582032 8 8 8 4.414063 0 8-3.585937 8-8 0-4.425781 3.574219-8 8-8 4.421875 0 8 3.574219 8 8 0 13.230469-10.769531 24-24 24zm0 0"/><path d="m288.003906 160.007812h-48c-4.425781 0-8-3.585937-8-8 0-4.417968 3.574219-8 8-8h48c4.421875 0 8 3.582032 8 8 0 4.414063-3.578125 8-8 8zm0 0"/><path d="m288.003906 160.007812c-4.425781 0-8-3.585937-8-8v-24c0-4.417968 3.574219-8 8-8 4.421875 0 8 3.582032 8 8v24c0 4.414063-3.578125 8-8 8zm0 0"/><path d="m288.003906 136.007812h-48c-4.425781 0-8-3.585937-8-8 0-4.417968 3.574219-8 8-8h48c4.421875 0 8 3.582032 8 8 0 4.414063-3.578125 8-8 8zm0 0"/><path d="m240.003906 160.007812c-4.425781 0-8-3.585937-8-8v-24c0-4.417968 3.574219-8 8-8 4.421875 0 8 3.582032 8 8v24c0 4.414063-3.578125 8-8 8zm0 0"/><path d="m248.003906 136.007812c-4.425781 0-8-3.585937-8-8v-24c0-4.417968 3.574219-8 8-8 4.421875 0 8 3.582032 8 8v24c0 4.414063-3.578125 8-8 8zm0 0"/><path d="m280.003906 136.007812c-4.425781 0-8-3.585937-8-8v-24c0-4.417968 3.574219-8 8-8 4.421875 0 8 3.582032 8 8v24c0 4.414063-3.578125 8-8 8zm0 0"/><path d="m392.003906 496.007812c-4.425781 0-8-3.578124-8-8 0-84.84375 2.496094-149.867187 4.6875-207.234374 1.785156-46.367188 3.3125-86.414063 3.3125-128.765626 0-4.417968 3.574219-8 8-8 4.421875 0 8 3.582032 8 8 0 42.664063-1.535156 82.847657-3.320312 129.382813-2.191406 57.214844-4.679688 122.078125-4.679688 206.617187 0 4.421876-3.578125 8-8 8zm0 0"/><path d="m360.003906 496.007812c-4.425781 0-8-3.578124-8-8 0-84.539062-2.488281-149.402343-4.679687-206.617187-1.785157-46.535156-3.320313-86.71875-3.320313-129.382813 0-4.417968 3.574219-8 8-8 4.421875 0 8 3.582032 8 8 0 42.351563 1.527344 82.398438 3.3125 128.765626 2.191406 57.367187 4.6875 122.390624 4.6875 207.234374 0 4.421876-3.578125 8-8 8zm0 0"/><path d="m376.003906 512.007812c-13.234375 0-24-10.769531-24-24 0-4.425781 3.574219-8 8-8 4.421875 0 8 3.574219 8 8 0 4.414063 3.582032 8 8 8 4.414063 0 8-3.585937 8-8 0-4.425781 3.574219-8 8-8 4.421875 0 8 3.574219 8 8 0 13.230469-10.769531 24-24 24zm0 0"/><path d="m400.003906 160.007812h-48c-4.425781 0-8-3.585937-8-8 0-4.417968 3.574219-8 8-8h48c4.421875 0 8 3.582032 8 8 0 4.414063-3.578125 8-8 8zm0 0"/><path d="m400.003906 160.007812c-4.425781 0-8-3.585937-8-8v-24c0-4.417968 3.574219-8 8-8 4.421875 0 8 3.582032 8 8v24c0 4.414063-3.578125 8-8 8zm0 0"/><path d="m400.003906 136.007812h-48c-4.425781 0-8-3.585937-8-8 0-4.417968 3.574219-8 8-8h48c4.421875 0 8 3.582032 8 8 0 4.414063-3.578125 8-8 8zm0 0"/><path d="m352.003906 160.007812c-4.425781 0-8-3.585937-8-8v-24c0-4.417968 3.574219-8 8-8 4.421875 0 8 3.582032 8 8v24c0 4.414063-3.578125 8-8 8zm0 0"/><path d="m360.003906 136.007812c-4.425781 0-8-3.585937-8-8v-16c0-4.417968 3.574219-8 8-8 4.421875 0 8 3.582032 8 8v16c0 4.414063-3.578125 8-8 8zm0 0"/><path d="m392.003906 136.007812c-4.425781 0-8-3.585937-8-8v-16c0-4.417968 3.574219-8 8-8 4.421875 0 8 3.582032 8 8v16c0 4.414063-3.578125 8-8 8zm0 0"/><path d="m384.003906 16.007812h-16c-4.425781 0-8-3.585937-8-8 0-4.417968 3.574219-7.9999995 8-7.9999995h16c4.421875 0 8 3.5820315 8 7.9999995 0 4.414063-3.578125 8-8 8zm0 0"/><path d="m360.003906 120.007812c-13.234375 0-24-10.769531-24-24 0-4.417968 3.574219-8 8-8 4.421875 0 8 3.582032 8 8 0 4.40625 3.582032 8 8 8 4.421875 0 8 3.582032 8 8 0 4.414063-3.578125 8-8 8zm0 0"/><path d="m392.003906 120.007812c-4.425781 0-8-3.585937-8-8 0-4.417968 3.574219-8 8-8 4.414063 0 8-3.59375 8-8 0-4.417968 3.574219-8 8-8 4.421875 0 8 3.582032 8 8 0 13.230469-10.769531 24-24 24zm0 0"/><path d="m344.011719 104.007812c-.703125 0-1.410157-.097656-2.113281-.289062-4.261719-1.167969-6.785157-5.5625-5.617188-9.824219l24-88c1.167969-4.273437 5.601562-6.761719 9.824219-5.617187 4.265625 1.167968 6.785156 5.5625 5.617187 9.824218l-24 88c-.96875 3.570313-4.199218 5.90625-7.710937 5.90625zm0 0"/><path d="m407.996094 104.007812c-3.511719 0-6.746094-2.335937-7.714844-5.898437l-24-88c-1.167969-4.261719 1.355469-8.664063 5.617188-9.824219 4.214843-1.144531 8.65625 1.34375 9.824218 5.617188l24 88c1.167969 4.261718-1.351562 8.664062-5.617187 9.824218-.703125.191407-1.40625.28125-2.109375.28125zm0 0"/><path d="m288.003906 112.007812h-48c-4.425781 0-8-3.585937-8-8 0-4.417968 3.574219-8 8-8h48c4.421875 0 8 3.582032 8 8 0 4.414063-3.578125 8-8 8zm0 0"/><path d="m240.003906 112.007812c-4.425781 0-8-3.585937-8-8v-72c0-4.417968 3.574219-8 8-8 4.421875 0 8 3.582032 8 8v72c0 4.414063-3.578125 8-8 8zm0 0"/><path d="m240.003906 40.007812c-4.425781 0-8-3.585937-8-8 0-17.648437 14.351563-31.9999995 32-31.9999995 4.421875 0 8 3.5820315 8 7.9999995 0 4.414063-3.578125 8-8 8-8.824218 0-16 7.175782-16 16 0 4.414063-3.578125 8-8 8zm0 0"/><path d="m288.003906 112.007812c-4.425781 0-8-3.585937-8-8v-72c0-4.417968 3.574219-8 8-8 4.421875 0 8 3.582032 8 8v72c0 4.414063-3.578125 8-8 8zm0 0"/><path d="m288.003906 40.007812c-4.425781 0-8-3.585937-8-8 0-8.824218-7.175781-16-16-16-4.425781 0-8-3.585937-8-8 0-4.417968 3.574219-7.9999995 8-7.9999995 17.648438 0 32 14.3515625 32 31.9999995 0 4.414063-3.578125 8-8 8zm0 0"/><path d="m264.003906 80.007812c-4.425781 0-8-3.585937-8-8v-64c0-4.417968 3.574219-7.9999995 8-7.9999995 4.421875 0 8 3.5820315 8 7.9999995v64c0 4.414063-3.578125 8-8 8zm0 0"/><path d="m40.003906 112.007812c-22.058594 0-39.99999975-17.945312-39.99999975-40 0-4.417968 3.57421875-8 7.99999975-8 4.421875 0 8 3.582032 8 8 0 13.230469 10.765625 24 24 24 13.230469 0 24-10.769531 24-24 0-4.417968 3.574219-8 8-8 4.421875 0 8 3.582032 8 8 0 22.054688-17.945312 40-40 40zm0 0"/><path d="m8.003906 80.007812c-4.425781 0-7.99999975-3.585937-7.99999975-8 0-26.058593 30.29687475-64.683593 33.74999975-69 2.785156-3.464843 7.824219-4 11.242188-1.25 3.453125 2.761719 4.015625 7.792969 1.253906 11.238282-8.414062 10.53125-30.246094 41.65625-30.246094 59.011718 0 4.414063-3.578125 8-8 8zm0 0"/><path d="m72.003906 80.007812c-4.425781 0-8-3.585937-8-8 0-17.386718-21.832031-48.488281-30.25-59-2.757812-3.449218-2.191406-8.488281 1.25-11.242187 3.464844-2.757813 8.488282-2.191406 11.246094 1.25 3.457031 4.308594 33.753906 42.933594 33.753906 68.992187 0 4.414063-3.578125 8-8 8zm0 0"/><path d="m40.003906 112.007812c-4.425781 0-8-3.585937-8-8v-32c0-4.417968 3.574219-8 8-8 4.421875 0 8 3.582032 8 8v32c0 4.414063-3.578125 8-8 8zm0 0"/></svg>